<svg xmlns="http://www.w3.org/2000/svg" xmlns:svg="http://www.w3.org/2000/svg" id="svg2" width="128" height="128" version="1.1" viewBox="0 0 128 128" xml:space="preserve"><metadata id="metadata8"/><defs id="defs6"><clipPath id="clipPath34" clipPathUnits="userSpaceOnUse"><path id="path36" d="M 0,630 H 810 V 0 H 0 Z"/></clipPath></defs><g id="g10" transform="matrix(0.91240646,0,0,-0.91240646,2.5418901,97.036927)"><g id="g12" transform="translate(71.74833,48.264794)"><path id="path14" d="M 0,0 H -9.554 -28.74 v 12.79 h 31.976 9.593 v 0 L 41.164,22.078 -6.385,-25.58 h 9.621 19.186 v -12.791 h -31.976 -9.593 l -28.336,-8.971 z" style="fill:#f7a41d;fill-opacity:1;fill-rule:nonzero;stroke:none"/></g><g id="g16" transform="translate(9.0420303,22.684294)"><path id="path18" d="m 0,0 v 38.37 h 0.541 v 0.001 H 28.436 V 25.581 H 12.79 V 0 H 31.975 L 19.185,-12.79 H 12.79 0 -0.001 V 0 Z" style="fill:#f7a41d;fill-opacity:1;fill-rule:nonzero;stroke:none"/></g><g id="g20" transform="translate(115.03933,48.264594)"><path id="path22" d="M 0,0 H -19.185 L -6.394,12.79 H 0 12.791 v 0 V 0 0 -38.37 H 12.25 v -0.001 h -27.895 v 12.79 H 0 Z" style="fill:#f7a41d;fill-opacity:1;fill-rule:nonzero;stroke:none"/></g></g></svg>